<svg width="192" height="192" viewBox="0 0 192 192" xmlns="http://www.w3.org/2000/svg">
    <defs>
      <linearGradient id="grad" x1="0%" y1="0%" x2="100%" y2="100%">
        <stop offset="0%" style="stop-color:#8b5cf6;stop-opacity:1" />
        <stop offset="100%" style="stop-color:#3b82f6;stop-opacity:1" />
      </linearGradient>
    </defs>
    <rect width="192" height="192" rx="28.799999999999997" fill="url(#grad)"/>
    <rect x="28.799999999999997" y="38.400000000000006" width="134.39999999999998" height="28.799999999999997" rx="3.84" fill="white" opacity="0.9"/>
    <text x="96" y="57.599999999999994" text-anchor="middle" fill="#1a1a2e" font-family="Arial, sans-serif" font-size="15.36" font-weight="bold">123.45</text>
    
    <!-- Botones de calculadora -->
    <g fill="white" opacity="0.8">
      <rect x="28.799999999999997" y="76.80000000000001" width="28.799999999999997" height="19.200000000000003" rx="1.92"/>
      <rect x="62.400000000000006" y="76.80000000000001" width="28.799999999999997" height="19.200000000000003" rx="1.92"/>
      <rect x="96" y="76.80000000000001" width="28.799999999999997" height="19.200000000000003" rx="1.92"/>
      <rect x="129.60000000000002" y="76.80000000000001" width="28.799999999999997" height="19.200000000000003" rx="1.92"/>
      
      <rect x="28.799999999999997" y="100.80000000000001" width="28.799999999999997" height="19.200000000000003" rx="1.92"/>
      <rect x="62.400000000000006" y="100.80000000000001" width="28.799999999999997" height="19.200000000000003" rx="1.92"/>
      <rect x="96" y="100.80000000000001" width="28.799999999999997" height="19.200000000000003" rx="1.92"/>
      <rect x="129.60000000000002" y="100.80000000000001" width="28.799999999999997" height="19.200000000000003" rx="1.92"/>
      
      <rect x="28.799999999999997" y="124.80000000000001" width="28.799999999999997" height="19.200000000000003" rx="1.92"/>
      <rect x="62.400000000000006" y="124.80000000000001" width="28.799999999999997" height="19.200000000000003" rx="1.92"/>
      <rect x="96" y="124.80000000000001" width="28.799999999999997" height="19.200000000000003" rx="1.92"/>
      <rect x="129.60000000000002" y="124.80000000000001" width="62.400000000000006" height="19.200000000000003" rx="1.92"/>
    </g>
    
    <!-- Símbolos en los botones -->
    <g fill="#1a1a2e" font-family="Arial, sans-serif" font-weight="bold" text-anchor="middle">
      <text x="43.2" y="88.32000000000001" font-size="9.600000000000001">7</text>
      <text x="76.80000000000001" y="88.32000000000001" font-size="9.600000000000001">8</text>
      <text x="110.39999999999999" y="88.32000000000001" font-size="9.600000000000001">9</text>
      <text x="144" y="88.32000000000001" font-size="9.600000000000001">÷</text>
      
      <text x="43.2" y="112.32" font-size="9.600000000000001">4</text>
      <text x="76.80000000000001" y="112.32" font-size="9.600000000000001">5</text>
      <text x="110.39999999999999" y="112.32" font-size="9.600000000000001">6</text>
      <text x="144" y="112.32" font-size="9.600000000000001">×</text>
      
      <text x="43.2" y="136.32" font-size="9.600000000000001">1</text>
      <text x="76.80000000000001" y="136.32" font-size="9.600000000000001">2</text>
      <text x="110.39999999999999" y="136.32" font-size="9.600000000000001">3</text>
      <text x="160.8" y="136.32" font-size="9.600000000000001">=</text>
    </g>
  </svg>