<svg width="384" height="384" viewBox="0 0 384 384" xmlns="http://www.w3.org/2000/svg">
    <defs>
      <linearGradient id="grad" x1="0%" y1="0%" x2="100%" y2="100%">
        <stop offset="0%" style="stop-color:#8b5cf6;stop-opacity:1" />
        <stop offset="100%" style="stop-color:#3b82f6;stop-opacity:1" />
      </linearGradient>
    </defs>
    <rect width="384" height="384" rx="57.599999999999994" fill="url(#grad)"/>
    <rect x="57.599999999999994" y="76.80000000000001" width="268.79999999999995" height="57.599999999999994" rx="7.68" fill="white" opacity="0.9"/>
    <text x="192" y="115.19999999999999" text-anchor="middle" fill="#1a1a2e" font-family="Arial, sans-serif" font-size="30.72" font-weight="bold">123.45</text>
    
    <!-- Botones de calculadora -->
    <g fill="white" opacity="0.8">
      <rect x="57.599999999999994" y="153.60000000000002" width="57.599999999999994" height="38.400000000000006" rx="3.84"/>
      <rect x="124.80000000000001" y="153.60000000000002" width="57.599999999999994" height="38.400000000000006" rx="3.84"/>
      <rect x="192" y="153.60000000000002" width="57.599999999999994" height="38.400000000000006" rx="3.84"/>
      <rect x="259.20000000000005" y="153.60000000000002" width="57.599999999999994" height="38.400000000000006" rx="3.84"/>
      
      <rect x="57.599999999999994" y="201.60000000000002" width="57.599999999999994" height="38.400000000000006" rx="3.84"/>
      <rect x="124.80000000000001" y="201.60000000000002" width="57.599999999999994" height="38.400000000000006" rx="3.84"/>
      <rect x="192" y="201.60000000000002" width="57.599999999999994" height="38.400000000000006" rx="3.84"/>
      <rect x="259.20000000000005" y="201.60000000000002" width="57.599999999999994" height="38.400000000000006" rx="3.84"/>
      
      <rect x="57.599999999999994" y="249.60000000000002" width="57.599999999999994" height="38.400000000000006" rx="3.84"/>
      <rect x="124.80000000000001" y="249.60000000000002" width="57.599999999999994" height="38.400000000000006" rx="3.84"/>
      <rect x="192" y="249.60000000000002" width="57.599999999999994" height="38.400000000000006" rx="3.84"/>
      <rect x="259.20000000000005" y="249.60000000000002" width="124.80000000000001" height="38.400000000000006" rx="3.84"/>
    </g>
    
    <!-- Símbolos en los botones -->
    <g fill="#1a1a2e" font-family="Arial, sans-serif" font-weight="bold" text-anchor="middle">
      <text x="86.4" y="176.64000000000001" font-size="19.200000000000003">7</text>
      <text x="153.60000000000002" y="176.64000000000001" font-size="19.200000000000003">8</text>
      <text x="220.79999999999998" y="176.64000000000001" font-size="19.200000000000003">9</text>
      <text x="288" y="176.64000000000001" font-size="19.200000000000003">÷</text>
      
      <text x="86.4" y="224.64" font-size="19.200000000000003">4</text>
      <text x="153.60000000000002" y="224.64" font-size="19.200000000000003">5</text>
      <text x="220.79999999999998" y="224.64" font-size="19.200000000000003">6</text>
      <text x="288" y="224.64" font-size="19.200000000000003">×</text>
      
      <text x="86.4" y="272.64" font-size="19.200000000000003">1</text>
      <text x="153.60000000000002" y="272.64" font-size="19.200000000000003">2</text>
      <text x="220.79999999999998" y="272.64" font-size="19.200000000000003">3</text>
      <text x="321.6" y="272.64" font-size="19.200000000000003">=</text>
    </g>
  </svg>