<svg width="72" height="72" viewBox="0 0 72 72" xmlns="http://www.w3.org/2000/svg">
    <defs>
      <linearGradient id="grad" x1="0%" y1="0%" x2="100%" y2="100%">
        <stop offset="0%" style="stop-color:#8b5cf6;stop-opacity:1" />
        <stop offset="100%" style="stop-color:#3b82f6;stop-opacity:1" />
      </linearGradient>
    </defs>
    <rect width="72" height="72" rx="10.799999999999999" fill="url(#grad)"/>
    <rect x="10.799999999999999" y="14.4" width="50.4" height="10.799999999999999" rx="1.44" fill="white" opacity="0.9"/>
    <text x="36" y="21.599999999999998" text-anchor="middle" fill="#1a1a2e" font-family="Arial, sans-serif" font-size="5.76" font-weight="bold">123.45</text>
    
    <!-- Botones de calculadora -->
    <g fill="white" opacity="0.8">
      <rect x="10.799999999999999" y="28.8" width="10.799999999999999" height="7.2" rx="0.72"/>
      <rect x="23.400000000000002" y="28.8" width="10.799999999999999" height="7.2" rx="0.72"/>
      <rect x="36" y="28.8" width="10.799999999999999" height="7.2" rx="0.72"/>
      <rect x="48.6" y="28.8" width="10.799999999999999" height="7.2" rx="0.72"/>
      
      <rect x="10.799999999999999" y="37.800000000000004" width="10.799999999999999" height="7.2" rx="0.72"/>
      <rect x="23.400000000000002" y="37.800000000000004" width="10.799999999999999" height="7.2" rx="0.72"/>
      <rect x="36" y="37.800000000000004" width="10.799999999999999" height="7.2" rx="0.72"/>
      <rect x="48.6" y="37.800000000000004" width="10.799999999999999" height="7.2" rx="0.72"/>
      
      <rect x="10.799999999999999" y="46.800000000000004" width="10.799999999999999" height="7.2" rx="0.72"/>
      <rect x="23.400000000000002" y="46.800000000000004" width="10.799999999999999" height="7.2" rx="0.72"/>
      <rect x="36" y="46.800000000000004" width="10.799999999999999" height="7.2" rx="0.72"/>
      <rect x="48.6" y="46.800000000000004" width="23.400000000000002" height="7.2" rx="0.72"/>
    </g>
    
    <!-- Símbolos en los botones -->
    <g fill="#1a1a2e" font-family="Arial, sans-serif" font-weight="bold" text-anchor="middle">
      <text x="16.2" y="33.120000000000005" font-size="3.6">7</text>
      <text x="28.8" y="33.120000000000005" font-size="3.6">8</text>
      <text x="41.4" y="33.120000000000005" font-size="3.6">9</text>
      <text x="54" y="33.120000000000005" font-size="3.6">÷</text>
      
      <text x="16.2" y="42.12" font-size="3.6">4</text>
      <text x="28.8" y="42.12" font-size="3.6">5</text>
      <text x="41.4" y="42.12" font-size="3.6">6</text>
      <text x="54" y="42.12" font-size="3.6">×</text>
      
      <text x="16.2" y="51.12" font-size="3.6">1</text>
      <text x="28.8" y="51.12" font-size="3.6">2</text>
      <text x="41.4" y="51.12" font-size="3.6">3</text>
      <text x="60.300000000000004" y="51.12" font-size="3.6">=</text>
    </g>
  </svg>