<svg width="144" height="144" viewBox="0 0 144 144" xmlns="http://www.w3.org/2000/svg">
    <defs>
      <linearGradient id="grad" x1="0%" y1="0%" x2="100%" y2="100%">
        <stop offset="0%" style="stop-color:#8b5cf6;stop-opacity:1" />
        <stop offset="100%" style="stop-color:#3b82f6;stop-opacity:1" />
      </linearGradient>
    </defs>
    <rect width="144" height="144" rx="21.599999999999998" fill="url(#grad)"/>
    <rect x="21.599999999999998" y="28.8" width="100.8" height="21.599999999999998" rx="2.88" fill="white" opacity="0.9"/>
    <text x="72" y="43.199999999999996" text-anchor="middle" fill="#1a1a2e" font-family="Arial, sans-serif" font-size="11.52" font-weight="bold">123.45</text>
    
    <!-- Botones de calculadora -->
    <g fill="white" opacity="0.8">
      <rect x="21.599999999999998" y="57.6" width="21.599999999999998" height="14.4" rx="1.44"/>
      <rect x="46.800000000000004" y="57.6" width="21.599999999999998" height="14.4" rx="1.44"/>
      <rect x="72" y="57.6" width="21.599999999999998" height="14.4" rx="1.44"/>
      <rect x="97.2" y="57.6" width="21.599999999999998" height="14.4" rx="1.44"/>
      
      <rect x="21.599999999999998" y="75.60000000000001" width="21.599999999999998" height="14.4" rx="1.44"/>
      <rect x="46.800000000000004" y="75.60000000000001" width="21.599999999999998" height="14.4" rx="1.44"/>
      <rect x="72" y="75.60000000000001" width="21.599999999999998" height="14.4" rx="1.44"/>
      <rect x="97.2" y="75.60000000000001" width="21.599999999999998" height="14.4" rx="1.44"/>
      
      <rect x="21.599999999999998" y="93.60000000000001" width="21.599999999999998" height="14.4" rx="1.44"/>
      <rect x="46.800000000000004" y="93.60000000000001" width="21.599999999999998" height="14.4" rx="1.44"/>
      <rect x="72" y="93.60000000000001" width="21.599999999999998" height="14.4" rx="1.44"/>
      <rect x="97.2" y="93.60000000000001" width="46.800000000000004" height="14.4" rx="1.44"/>
    </g>
    
    <!-- Símbolos en los botones -->
    <g fill="#1a1a2e" font-family="Arial, sans-serif" font-weight="bold" text-anchor="middle">
      <text x="32.4" y="66.24000000000001" font-size="7.2">7</text>
      <text x="57.6" y="66.24000000000001" font-size="7.2">8</text>
      <text x="82.8" y="66.24000000000001" font-size="7.2">9</text>
      <text x="108" y="66.24000000000001" font-size="7.2">÷</text>
      
      <text x="32.4" y="84.24" font-size="7.2">4</text>
      <text x="57.6" y="84.24" font-size="7.2">5</text>
      <text x="82.8" y="84.24" font-size="7.2">6</text>
      <text x="108" y="84.24" font-size="7.2">×</text>
      
      <text x="32.4" y="102.24" font-size="7.2">1</text>
      <text x="57.6" y="102.24" font-size="7.2">2</text>
      <text x="82.8" y="102.24" font-size="7.2">3</text>
      <text x="120.60000000000001" y="102.24" font-size="7.2">=</text>
    </g>
  </svg>