<svg width="128" height="128" viewBox="0 0 128 128" xmlns="http://www.w3.org/2000/svg">
    <defs>
      <linearGradient id="grad" x1="0%" y1="0%" x2="100%" y2="100%">
        <stop offset="0%" style="stop-color:#8b5cf6;stop-opacity:1" />
        <stop offset="100%" style="stop-color:#3b82f6;stop-opacity:1" />
      </linearGradient>
    </defs>
    <rect width="128" height="128" rx="19.2" fill="url(#grad)"/>
    <rect x="19.2" y="25.6" width="89.6" height="19.2" rx="2.56" fill="white" opacity="0.9"/>
    <text x="64" y="38.4" text-anchor="middle" fill="#1a1a2e" font-family="Arial, sans-serif" font-size="10.24" font-weight="bold">123.45</text>
    
    <!-- Botones de calculadora -->
    <g fill="white" opacity="0.8">
      <rect x="19.2" y="51.2" width="19.2" height="12.8" rx="1.28"/>
      <rect x="41.6" y="51.2" width="19.2" height="12.8" rx="1.28"/>
      <rect x="64" y="51.2" width="19.2" height="12.8" rx="1.28"/>
      <rect x="86.4" y="51.2" width="19.2" height="12.8" rx="1.28"/>
      
      <rect x="19.2" y="67.2" width="19.2" height="12.8" rx="1.28"/>
      <rect x="41.6" y="67.2" width="19.2" height="12.8" rx="1.28"/>
      <rect x="64" y="67.2" width="19.2" height="12.8" rx="1.28"/>
      <rect x="86.4" y="67.2" width="19.2" height="12.8" rx="1.28"/>
      
      <rect x="19.2" y="83.2" width="19.2" height="12.8" rx="1.28"/>
      <rect x="41.6" y="83.2" width="19.2" height="12.8" rx="1.28"/>
      <rect x="64" y="83.2" width="19.2" height="12.8" rx="1.28"/>
      <rect x="86.4" y="83.2" width="41.6" height="12.8" rx="1.28"/>
    </g>
    
    <!-- Símbolos en los botones -->
    <g fill="#1a1a2e" font-family="Arial, sans-serif" font-weight="bold" text-anchor="middle">
      <text x="28.8" y="58.88" font-size="6.4">7</text>
      <text x="51.2" y="58.88" font-size="6.4">8</text>
      <text x="73.6" y="58.88" font-size="6.4">9</text>
      <text x="96" y="58.88" font-size="6.4">÷</text>
      
      <text x="28.8" y="74.88" font-size="6.4">4</text>
      <text x="51.2" y="74.88" font-size="6.4">5</text>
      <text x="73.6" y="74.88" font-size="6.4">6</text>
      <text x="96" y="74.88" font-size="6.4">×</text>
      
      <text x="28.8" y="90.88" font-size="6.4">1</text>
      <text x="51.2" y="90.88" font-size="6.4">2</text>
      <text x="73.6" y="90.88" font-size="6.4">3</text>
      <text x="107.2" y="90.88" font-size="6.4">=</text>
    </g>
  </svg>