<svg width="96" height="96" viewBox="0 0 96 96" xmlns="http://www.w3.org/2000/svg">
    <defs>
      <linearGradient id="grad" x1="0%" y1="0%" x2="100%" y2="100%">
        <stop offset="0%" style="stop-color:#8b5cf6;stop-opacity:1" />
        <stop offset="100%" style="stop-color:#3b82f6;stop-opacity:1" />
      </linearGradient>
    </defs>
    <rect width="96" height="96" rx="14.399999999999999" fill="url(#grad)"/>
    <rect x="14.399999999999999" y="19.200000000000003" width="67.19999999999999" height="14.399999999999999" rx="1.92" fill="white" opacity="0.9"/>
    <text x="48" y="28.799999999999997" text-anchor="middle" fill="#1a1a2e" font-family="Arial, sans-serif" font-size="7.68" font-weight="bold">123.45</text>
    
    <!-- Botones de calculadora -->
    <g fill="white" opacity="0.8">
      <rect x="14.399999999999999" y="38.400000000000006" width="14.399999999999999" height="9.600000000000001" rx="0.96"/>
      <rect x="31.200000000000003" y="38.400000000000006" width="14.399999999999999" height="9.600000000000001" rx="0.96"/>
      <rect x="48" y="38.400000000000006" width="14.399999999999999" height="9.600000000000001" rx="0.96"/>
      <rect x="64.80000000000001" y="38.400000000000006" width="14.399999999999999" height="9.600000000000001" rx="0.96"/>
      
      <rect x="14.399999999999999" y="50.400000000000006" width="14.399999999999999" height="9.600000000000001" rx="0.96"/>
      <rect x="31.200000000000003" y="50.400000000000006" width="14.399999999999999" height="9.600000000000001" rx="0.96"/>
      <rect x="48" y="50.400000000000006" width="14.399999999999999" height="9.600000000000001" rx="0.96"/>
      <rect x="64.80000000000001" y="50.400000000000006" width="14.399999999999999" height="9.600000000000001" rx="0.96"/>
      
      <rect x="14.399999999999999" y="62.400000000000006" width="14.399999999999999" height="9.600000000000001" rx="0.96"/>
      <rect x="31.200000000000003" y="62.400000000000006" width="14.399999999999999" height="9.600000000000001" rx="0.96"/>
      <rect x="48" y="62.400000000000006" width="14.399999999999999" height="9.600000000000001" rx="0.96"/>
      <rect x="64.80000000000001" y="62.400000000000006" width="31.200000000000003" height="9.600000000000001" rx="0.96"/>
    </g>
    
    <!-- Símbolos en los botones -->
    <g fill="#1a1a2e" font-family="Arial, sans-serif" font-weight="bold" text-anchor="middle">
      <text x="21.6" y="44.160000000000004" font-size="4.800000000000001">7</text>
      <text x="38.400000000000006" y="44.160000000000004" font-size="4.800000000000001">8</text>
      <text x="55.199999999999996" y="44.160000000000004" font-size="4.800000000000001">9</text>
      <text x="72" y="44.160000000000004" font-size="4.800000000000001">÷</text>
      
      <text x="21.6" y="56.16" font-size="4.800000000000001">4</text>
      <text x="38.400000000000006" y="56.16" font-size="4.800000000000001">5</text>
      <text x="55.199999999999996" y="56.16" font-size="4.800000000000001">6</text>
      <text x="72" y="56.16" font-size="4.800000000000001">×</text>
      
      <text x="21.6" y="68.16" font-size="4.800000000000001">1</text>
      <text x="38.400000000000006" y="68.16" font-size="4.800000000000001">2</text>
      <text x="55.199999999999996" y="68.16" font-size="4.800000000000001">3</text>
      <text x="80.4" y="68.16" font-size="4.800000000000001">=</text>
    </g>
  </svg>