<svg width="152" height="152" viewBox="0 0 152 152" xmlns="http://www.w3.org/2000/svg">
    <defs>
      <linearGradient id="grad" x1="0%" y1="0%" x2="100%" y2="100%">
        <stop offset="0%" style="stop-color:#8b5cf6;stop-opacity:1" />
        <stop offset="100%" style="stop-color:#3b82f6;stop-opacity:1" />
      </linearGradient>
    </defs>
    <rect width="152" height="152" rx="22.8" fill="url(#grad)"/>
    <rect x="22.8" y="30.400000000000002" width="106.39999999999999" height="22.8" rx="3.04" fill="white" opacity="0.9"/>
    <text x="76" y="45.6" text-anchor="middle" fill="#1a1a2e" font-family="Arial, sans-serif" font-size="12.16" font-weight="bold">123.45</text>
    
    <!-- Botones de calculadora -->
    <g fill="white" opacity="0.8">
      <rect x="22.8" y="60.800000000000004" width="22.8" height="15.200000000000001" rx="1.52"/>
      <rect x="49.4" y="60.800000000000004" width="22.8" height="15.200000000000001" rx="1.52"/>
      <rect x="76" y="60.800000000000004" width="22.8" height="15.200000000000001" rx="1.52"/>
      <rect x="102.60000000000001" y="60.800000000000004" width="22.8" height="15.200000000000001" rx="1.52"/>
      
      <rect x="22.8" y="79.8" width="22.8" height="15.200000000000001" rx="1.52"/>
      <rect x="49.4" y="79.8" width="22.8" height="15.200000000000001" rx="1.52"/>
      <rect x="76" y="79.8" width="22.8" height="15.200000000000001" rx="1.52"/>
      <rect x="102.60000000000001" y="79.8" width="22.8" height="15.200000000000001" rx="1.52"/>
      
      <rect x="22.8" y="98.8" width="22.8" height="15.200000000000001" rx="1.52"/>
      <rect x="49.4" y="98.8" width="22.8" height="15.200000000000001" rx="1.52"/>
      <rect x="76" y="98.8" width="22.8" height="15.200000000000001" rx="1.52"/>
      <rect x="102.60000000000001" y="98.8" width="49.4" height="15.200000000000001" rx="1.52"/>
    </g>
    
    <!-- Símbolos en los botones -->
    <g fill="#1a1a2e" font-family="Arial, sans-serif" font-weight="bold" text-anchor="middle">
      <text x="34.2" y="69.92" font-size="7.6000000000000005">7</text>
      <text x="60.800000000000004" y="69.92" font-size="7.6000000000000005">8</text>
      <text x="87.39999999999999" y="69.92" font-size="7.6000000000000005">9</text>
      <text x="114" y="69.92" font-size="7.6000000000000005">÷</text>
      
      <text x="34.2" y="88.91999999999999" font-size="7.6000000000000005">4</text>
      <text x="60.800000000000004" y="88.91999999999999" font-size="7.6000000000000005">5</text>
      <text x="87.39999999999999" y="88.91999999999999" font-size="7.6000000000000005">6</text>
      <text x="114" y="88.91999999999999" font-size="7.6000000000000005">×</text>
      
      <text x="34.2" y="107.91999999999999" font-size="7.6000000000000005">1</text>
      <text x="60.800000000000004" y="107.91999999999999" font-size="7.6000000000000005">2</text>
      <text x="87.39999999999999" y="107.91999999999999" font-size="7.6000000000000005">3</text>
      <text x="127.3" y="107.91999999999999" font-size="7.6000000000000005">=</text>
    </g>
  </svg>