<svg width="32" height="32" viewBox="0 0 32 32" xmlns="http://www.w3.org/2000/svg">
    <defs>
      <linearGradient id="grad" x1="0%" y1="0%" x2="100%" y2="100%">
        <stop offset="0%" style="stop-color:#8b5cf6;stop-opacity:1" />
        <stop offset="100%" style="stop-color:#3b82f6;stop-opacity:1" />
      </linearGradient>
    </defs>
    <rect width="32" height="32" rx="4.8" fill="url(#grad)"/>
    <rect x="4.8" y="6.4" width="22.4" height="4.8" rx="0.64" fill="white" opacity="0.9"/>
    <text x="16" y="9.6" text-anchor="middle" fill="#1a1a2e" font-family="Arial, sans-serif" font-size="2.56" font-weight="bold">123.45</text>
    
    <!-- Botones de calculadora -->
    <g fill="white" opacity="0.8">
      <rect x="4.8" y="12.8" width="4.8" height="3.2" rx="0.32"/>
      <rect x="10.4" y="12.8" width="4.8" height="3.2" rx="0.32"/>
      <rect x="16" y="12.8" width="4.8" height="3.2" rx="0.32"/>
      <rect x="21.6" y="12.8" width="4.8" height="3.2" rx="0.32"/>
      
      <rect x="4.8" y="16.8" width="4.8" height="3.2" rx="0.32"/>
      <rect x="10.4" y="16.8" width="4.8" height="3.2" rx="0.32"/>
      <rect x="16" y="16.8" width="4.8" height="3.2" rx="0.32"/>
      <rect x="21.6" y="16.8" width="4.8" height="3.2" rx="0.32"/>
      
      <rect x="4.8" y="20.8" width="4.8" height="3.2" rx="0.32"/>
      <rect x="10.4" y="20.8" width="4.8" height="3.2" rx="0.32"/>
      <rect x="16" y="20.8" width="4.8" height="3.2" rx="0.32"/>
      <rect x="21.6" y="20.8" width="10.4" height="3.2" rx="0.32"/>
    </g>
    
    <!-- Símbolos en los botones -->
    <g fill="#1a1a2e" font-family="Arial, sans-serif" font-weight="bold" text-anchor="middle">
      <text x="7.2" y="14.72" font-size="1.6">7</text>
      <text x="12.8" y="14.72" font-size="1.6">8</text>
      <text x="18.4" y="14.72" font-size="1.6">9</text>
      <text x="24" y="14.72" font-size="1.6">÷</text>
      
      <text x="7.2" y="18.72" font-size="1.6">4</text>
      <text x="12.8" y="18.72" font-size="1.6">5</text>
      <text x="18.4" y="18.72" font-size="1.6">6</text>
      <text x="24" y="18.72" font-size="1.6">×</text>
      
      <text x="7.2" y="22.72" font-size="1.6">1</text>
      <text x="12.8" y="22.72" font-size="1.6">2</text>
      <text x="18.4" y="22.72" font-size="1.6">3</text>
      <text x="26.8" y="22.72" font-size="1.6">=</text>
    </g>
  </svg>